<?xml version="1.0" standalone="no"?>
<!DOCTYPE svg PUBLIC "-//W3C//DTD SVG 20010904//EN"
 "http://www.w3.org/TR/2001/REC-SVG-20010904/DTD/svg10.dtd">
<svg version="1.0" xmlns="http://www.w3.org/2000/svg"
 width="400.000000pt" height="80.000000pt" viewBox="0 0 400.000000 80.000000"
 preserveAspectRatio="xMidYMid meet">

<g transform="translate(0.000000,80.000000) scale(0.100000,-0.100000)"
fill="#000000" stroke="none">
<path d="M3652 615 c-95 -42 -142 -113 -142 -218 0 -245 337 -315 441 -92 10
22 19 52 19 68 0 26 -2 27 -55 27 -53 0 -55 -1 -55 -26 0 -32 -55 -90 -95
-100 -44 -11 -105 15 -133 56 -35 51 -27 123 17 162 18 16 45 31 62 35 27 5
29 8 29 54 0 47 -1 49 -27 49 -16 -1 -43 -7 -61 -15z m48 -378 c14 4 20 0 20
-11 0 -12 -7 -16 -25 -13 -14 2 -25 6 -25 10 1 28 2 31 6 21 3 -7 14 -10 24
-7z m77 -10 c0 -7 -9 -14 -19 -14 -23 -2 -24 14 0 20 9 3 17 5 18 6 0 0 1 -5
1 -12z m34 0 c-1 -12 -15 -9 -19 4 -3 6 1 10 8 8 6 -3 11 -8 11 -12z"/>
<path d="M692 593 c8 -10 28 -48 44 -85 15 -38 31 -68 34 -68 4 0 21 36 40 80
24 59 37 80 49 78 20 -4 29 -122 10 -144 -10 -12 -4 -14 34 -14 49 0 77 7 77
20 0 5 -13 3 -29 -3 -40 -15 -63 -3 -59 30 2 21 9 29 27 31 13 2 28 -2 32 -10
6 -9 9 -4 9 15 0 24 -2 26 -19 16 -28 -18 -53 -4 -49 28 3 31 38 43 64 23 11
-10 14 -9 14 4 0 13 -13 16 -80 16 -67 0 -78 -2 -74 -15 4 -8 -4 -41 -17 -72
l-23 -57 -28 63 c-15 35 -25 67 -22 72 3 5 -7 9 -22 9 -25 0 -26 -1 -12 -17z"/>
<path d="M1008 598 c16 -16 16 -130 0 -146 -9 -9 7 -12 72 -11 46 1 78 4 71 8
-13 8 -5 41 13 53 24 17 57 8 66 -18 6 -14 8 -30 4 -35 -3 -5 17 -9 46 -9 46
0 50 2 41 18 -5 10 -6 33 -3 51 l7 34 25 -52 24 -52 30 58 c32 62 41 57 34
-18 -3 -36 -2 -39 22 -39 14 0 20 4 14 8 -16 10 -27 132 -13 148 9 11 8 14 -4
14 -9 0 -28 -28 -47 -67 l-32 -68 -30 68 c-23 51 -36 67 -51 67 -19 0 -19 -1
-4 -18 26 -28 18 -142 -10 -142 -13 0 -24 19 -68 125 l-17 40 -38 -82 c-21
-46 -42 -83 -45 -83 -3 0 -4 4 -1 9 4 5 -7 4 -22 -1 -49 -19 -62 -6 -62 57 0
31 5 65 10 76 9 17 7 19 -17 19 -21 0 -24 -3 -15 -12z m202 -65 c0 -7 -9 -13
-20 -13 -23 0 -24 4 -9 32 9 17 13 18 20 7 5 -8 9 -20 9 -26z"/>
<path d="M1498 599 c7 -8 12 -40 12 -80 0 -45 -4 -69 -12 -72 -7 -3 0 -6 16
-6 23 -1 26 1 17 13 -7 8 -11 34 -9 58 l3 43 24 -52 c13 -29 27 -53 31 -53 3
0 17 23 31 52 l24 52 6 -45 c4 -24 2 -50 -3 -56 -8 -10 1 -13 40 -13 40 0 50
3 46 14 -9 24 15 56 41 56 26 0 50 -32 41 -56 -4 -10 3 -14 26 -14 27 0 30 2
16 13 -8 6 -28 45 -43 85 -16 39 -30 72 -32 72 -2 0 -20 -36 -40 -80 -46 -102
-67 -105 -71 -12 -2 39 2 69 9 78 9 11 8 14 -5 14 -11 0 -28 -23 -48 -67 l-32
-67 -31 65 c-20 41 -37 65 -50 67 -16 3 -18 1 -7 -9z m285 -59 c4 -16 0 -20
-19 -20 -21 0 -23 2 -12 25 12 27 23 26 31 -5z"/>
<path d="M1868 601 c10 -6 13 -29 10 -85 l-3 -76 46 0 c32 0 51 5 60 17 12 15
12 16 -6 8 -11 -4 -32 -10 -47 -13 l-28 -4 0 69 c0 40 5 74 12 81 9 9 4 12
-22 12 -23 0 -30 -3 -22 -9z"/>
<path d="M2346 527 c-69 -39 -94 -119 -59 -192 9 -19 15 -36 12 -38 -9 -9 -89
-15 -89 -7 0 4 -21 11 -47 15 -27 4 -63 13 -81 21 l-33 14 21 -34 21 -34 -22
-16 c-21 -14 -20 -15 27 -29 38 -11 50 -19 52 -37 4 -22 6 -23 95 -17 51 3
137 17 192 32 106 27 215 46 215 36 0 -4 26 -12 58 -18 31 -7 68 -15 81 -19
l25 -7 -22 31 -23 31 22 12 c21 11 21 12 3 22 -10 6 -32 13 -49 17 -21 4 -31
12 -33 27 -4 25 -39 32 -109 22 l-43 -6 0 39 c0 57 -33 114 -80 138 -50 26
-86 25 -134 -3z m127 -84 c15 -43 27 -81 27 -85 0 -15 -48 -8 -54 7 -3 9 -18
15 -36 15 -20 0 -30 -5 -30 -15 0 -9 -9 -15 -25 -15 -31 0 -31 8 1 98 26 69
28 72 59 72 30 0 32 -3 58 -77z m102 -123 c3 -5 -3 -10 -14 -10 -14 0 -21 -6
-21 -20 0 -11 7 -20 15 -20 8 0 15 5 15 11 0 5 5 7 10 4 8 -5 7 -11 -1 -21
-29 -36 -81 5 -59 46 11 21 44 27 55 10z m-72 -49 l21 -34 -24 6 c-13 3 -30 1
-37 -5 -20 -16 -25 -5 -17 36 8 45 27 44 57 -3z m-73 -39 c0 -8 -8 -10 -25 -6
-15 4 -25 2 -25 -5 0 -6 -4 -11 -10 -11 -14 0 -13 46 1 73 12 21 12 21 35 -9
13 -16 24 -35 24 -42z m-89 10 c8 -39 2 -46 -26 -28 -19 13 -22 13 -21 1 3
-31 -19 -13 -25 20 -7 39 4 45 34 18 19 -17 19 -17 12 6 -5 17 -4 22 6 19 8
-3 16 -19 20 -36z"/>
<path d="M2407 456 c-11 -27 -8 -36 8 -36 16 0 17 5 6 34 -7 18 -8 18 -14 2z"/>
<path d="M3680 468 c0 -19 2 -20 10 -8 6 10 10 11 10 3 0 -7 4 -13 9 -13 5 0
7 9 4 20 -7 27 -33 25 -33 -2z"/>
<path d="M3720 483 c0 -5 5 -15 10 -23 9 -13 11 -13 20 0 5 8 10 20 10 25 0 6
-5 3 -10 -5 -6 -10 -10 -11 -10 -2 0 6 -4 12 -10 12 -5 0 -10 -3 -10 -7z"/>
<path d="M3827 473 c3 -7 0 -13 -6 -13 -6 0 -11 5 -11 10 0 6 -9 10 -20 10
-18 0 -30 -19 -12 -21 55 -7 112 -6 107 1 -4 6 -1 10 6 10 28 0 -4 14 -35 15
-25 2 -33 -2 -29 -12z"/>
<path d="M810 384 c0 -6 14 -23 30 -39 17 -16 30 -24 30 -19 0 6 -13 23 -30
39 -16 16 -30 24 -30 19z"/>
<path d="M892 378 c-17 -17 -15 -33 5 -49 15 -13 15 -12 3 8 -11 18 -12 24 -1
37 16 19 10 21 -7 4z"/>
<path d="M965 355 c0 -19 3 -35 8 -35 4 0 7 16 7 35 0 19 -3 35 -7 35 -5 0 -8
-16 -8 -35z"/>
<path d="M999 353 c4 -33 5 -35 11 -13 l6 24 17 -24 c9 -13 17 -20 17 -15 -1
10 -45 65 -53 65 -1 0 -1 -17 2 -37z"/>
<path d="M1190 386 c0 -2 9 -6 20 -9 11 -3 20 -1 20 4 0 5 -9 9 -20 9 -11 0
-20 -2 -20 -4z"/>
<path d="M1260 355 c0 -19 3 -35 8 -35 4 0 7 16 7 35 0 19 -3 35 -7 35 -5 0
-8 -16 -8 -35z"/>
<path d="M1290 384 c0 -6 14 -23 30 -39 l30 -29 -1 40 c-1 25 -3 30 -6 16 l-5
-24 -24 23 c-13 12 -24 18 -24 13z"/>
<path d="M1372 378 c-17 -17 -15 -33 5 -49 15 -13 15 -12 3 8 -11 18 -12 24
-1 37 16 19 10 21 -7 4z"/>
<path d="M1544 376 c-9 -23 -1 -49 16 -53 12 -4 13 -3 1 5 -8 6 -12 20 -9 36
6 28 1 35 -8 12z"/>
<path d="M1592 368 c7 -15 15 -23 17 -17 2 6 -4 18 -13 27 -15 15 -15 15 -4
-10z"/>
<path d="M1682 358 c-2 -34 1 -38 21 -37 15 1 17 3 5 6 -10 2 -18 17 -21 36
-4 31 -4 31 -5 -5z"/>
<path d="M1735 355 c0 -19 3 -35 8 -35 4 0 7 6 7 14 0 8 6 17 13 19 10 4 10 6
0 6 -7 1 -13 8 -13 16 0 8 -3 15 -7 15 -5 0 -8 -16 -8 -35z"/>
<path d="M1794 376 c-9 -23 -1 -49 16 -53 12 -4 13 -3 1 5 -8 6 -12 20 -9 36
6 28 1 35 -8 12z"/>
<path d="M1870 355 c0 -19 4 -35 10 -35 5 0 7 6 4 14 -3 8 2 16 13 19 17 4 17
5 -1 6 -12 1 -16 6 -12 16 3 8 1 15 -4 15 -6 0 -10 -16 -10 -35z"/>
<path d="M768 353 c7 -3 16 -2 19 1 4 3 -2 6 -13 5 -11 0 -14 -3 -6 -6z"/>
<path d="M934 341 c0 -11 4 -17 8 -15 4 3 8 12 8 20 0 8 -4 14 -8 14 -4 0 -8
-9 -8 -19z"/>
<path d="M1088 353 c7 -3 16 -2 19 1 4 3 -2 6 -13 5 -11 0 -14 -3 -6 -6z"/>
<path d="M1148 353 c7 -3 16 -2 19 1 4 3 -2 6 -13 5 -11 0 -14 -3 -6 -6z"/>
<path d="M1220 340 c11 -11 22 -20 25 -20 3 0 0 9 -7 20 -7 11 -18 20 -25 20
-8 0 -5 -8 7 -20z"/>
<path d="M1417 341 c-4 -17 -3 -21 5 -13 5 5 8 16 6 23 -3 8 -7 3 -11 -10z"/>
<path d="M1837 341 c-4 -17 -3 -21 5 -13 5 5 8 16 6 23 -3 8 -7 3 -11 -10z"/>
<path d="M1470 341 c0 -6 4 -13 10 -16 6 -3 7 1 4 9 -7 18 -14 21 -14 7z"/>
<path d="M1511 234 c0 -11 3 -14 6 -6 3 7 2 16 -1 19 -3 4 -6 -2 -5 -13z"/>
<path d="M1283 217 c0 -8 6 -14 14 -14 9 0 10 4 2 14 -6 7 -12 13 -14 13 -1 0
-2 -6 -2 -13z"/>
<path d="M1407 217 c-3 -8 1 -14 8 -14 7 0 11 6 8 14 -6 16 -10 16 -16 0z"/>
</g>
</svg>
