<?xml version="1.0" standalone="no"?>
<!DOCTYPE svg PUBLIC "-//W3C//DTD SVG 20010904//EN"
 "http://www.w3.org/TR/2001/REC-SVG-20010904/DTD/svg10.dtd">
<svg version="1.0" xmlns="http://www.w3.org/2000/svg"
 width="248.000000pt" height="113.000000pt" viewBox="0 0 248.000000 113.000000"
 preserveAspectRatio="xMidYMid meet">

<g transform="translate(0.000000,113.000000) scale(0.100000,-0.100000)"
fill="#000000" stroke="none">
<path d="M1133 788 c8 -13 32 -65 53 -115 21 -51 41 -93 44 -93 3 0 23 41 45
92 22 50 48 102 58 115 l18 23 -33 -1 c-18 0 -27 -3 -20 -6 18 -7 15 -23 -17
-94 l-29 -64 -27 60 c-15 33 -28 70 -28 82 -2 20 -8 23 -40 23 -36 0 -37 -1
-24 -22z"/>
<path d="M1398 798 c8 -8 12 -46 12 -103 0 -57 -4 -95 -12 -103 -9 -9 -3 -12
28 -12 l39 0 -3 101 c-2 67 1 105 9 115 10 12 4 14 -37 14 -37 0 -45 -3 -36
-12z"/>
<path d="M1530 796 c0 -8 -3 -22 -6 -31 -4 -11 3 -7 19 9 14 14 33 26 42 26
14 0 16 -14 13 -110 l-3 -110 40 0 c30 0 36 3 27 12 -14 14 -17 194 -4 202 16
10 50 -6 60 -27 10 -20 11 -19 11 11 l1 32 -100 0 c-80 0 -100 -3 -100 -14z"/>
<path d="M285 590 c4 -6 11 -8 16 -5 14 9 11 15 -7 15 -8 0 -12 -5 -9 -10z"/>
<path d="M542 545 c0 -16 2 -22 5 -12 2 9 2 23 0 30 -3 6 -5 -1 -5 -18z"/>
<path d="M415 550 c3 -5 8 -10 11 -10 2 0 4 5 4 10 0 6 -5 10 -11 10 -5 0 -7
-4 -4 -10z"/>
<path d="M170 536 c0 -13 11 -16 58 -16 64 1 55 14 -16 26 -35 5 -42 4 -42
-10z"/>
<path d="M1053 543 c207 -2 547 -2 755 0 207 1 37 2 -378 2 -415 0 -585 -1
-377 -2z"/>
<path d="M310 530 c-13 -8 -12 -10 3 -10 9 0 17 5 17 10 0 12 -1 12 -20 0z"/>
<path d="M692 450 c8 -25 28 -51 28 -37 0 15 -24 67 -30 67 -5 0 -4 -14 2 -30z"/>
<path d="M813 440 c0 -25 2 -35 4 -22 2 12 2 32 0 45 -2 12 -4 2 -4 -23z"/>
<path d="M843 440 c0 -25 2 -35 4 -22 2 12 2 32 0 45 -2 12 -4 2 -4 -23z"/>
<path d="M1060 440 c0 -22 5 -40 10 -40 6 0 10 18 10 40 0 22 -4 40 -10 40 -5
0 -10 -18 -10 -40z"/>
<path d="M1650 441 c0 -23 2 -41 4 -41 8 0 12 71 4 76 -4 3 -8 -13 -8 -35z"/>
<path d="M1803 440 c0 -25 2 -35 4 -22 2 12 2 32 0 45 -2 12 -4 2 -4 -23z"/>
<path d="M1567 463 c-2 -5 0 -21 4 -38 7 -29 7 -29 8 8 1 35 -3 46 -12 30z"/>
<path d="M1980 435 c0 -19 5 -35 10 -35 6 0 10 16 10 35 0 19 -4 35 -10 35 -5
0 -10 -16 -10 -35z"/>
<path d="M1210 436 c0 -14 5 -28 10 -31 6 -4 10 7 10 24 0 17 -4 31 -10 31 -5
0 -10 -11 -10 -24z"/>
<path d="M1280 436 c0 -14 5 -28 10 -31 6 -4 10 7 10 24 0 17 -4 31 -10 31 -5
0 -10 -11 -10 -24z"/>
<path d="M1392 430 c0 -19 2 -27 5 -17 2 9 2 25 0 35 -3 9 -5 1 -5 -18z"/>
<path d="M505 439 c-4 -6 -16 -14 -28 -18 -11 -4 -16 -11 -10 -14 5 -4 21 5
33 18 13 14 21 25 17 25 -3 0 -9 -5 -12 -11z"/>
<path d="M755 437 c-4 -11 -3 -23 4 -30 15 -15 19 -7 11 23 -6 22 -8 23 -15 7z"/>
<path d="M872 430 c0 -14 2 -19 5 -12 2 6 2 18 0 25 -3 6 -5 1 -5 -13z"/>
<path d="M902 430 c0 -14 2 -19 5 -12 2 6 2 18 0 25 -3 6 -5 1 -5 -13z"/>
<path d="M931 423 c0 -16 3 -21 6 -13 3 8 12 21 21 28 14 10 13 12 -6 12 -18
0 -22 -6 -21 -27z"/>
<path d="M978 439 c-3 -9 -2 -22 2 -30 13 -19 18 -8 10 21 -4 19 -7 21 -12 9z"/>
<path d="M1000 440 c0 -5 5 -10 11 -10 5 0 7 5 4 10 -3 6 -8 10 -11 10 -2 0
-4 -4 -4 -10z"/>
<path d="M1103 430 c-1 -11 2 -22 8 -25 5 -4 9 5 9 19 0 30 -15 35 -17 6z"/>
<path d="M1130 425 c0 -14 5 -25 10 -25 6 0 10 11 10 25 0 14 -4 25 -10 25 -5
0 -10 -11 -10 -25z"/>
<path d="M1170 438 c0 -9 7 -19 16 -22 15 -6 15 -4 3 11 -7 10 -15 20 -16 22
-2 2 -3 -3 -3 -11z"/>
<path d="M1252 425 c0 -16 2 -22 5 -12 2 9 2 23 0 30 -3 6 -5 -1 -5 -18z"/>
<path d="M1320 431 c0 -11 5 -23 10 -26 6 -4 10 5 10 19 0 14 -4 26 -10 26 -5
0 -10 -9 -10 -19z"/>
<path d="M1350 425 c0 -14 5 -25 10 -25 6 0 10 11 10 25 0 14 -4 25 -10 25 -5
0 -10 -11 -10 -25z"/>
<path d="M1424 435 c-7 -17 3 -35 18 -35 7 0 6 5 -2 15 -6 8 -9 19 -5 25 3 5
4 10 0 10 -3 0 -8 -7 -11 -15z"/>
<path d="M1503 434 c-3 -8 -1 -20 4 -25 7 -7 11 -2 11 15 0 29 -6 33 -15 10z"/>
<path d="M1530 425 c0 -15 4 -24 10 -20 6 3 10 12 10 20 0 8 -4 17 -10 20 -6
4 -10 -5 -10 -20z"/>
<path d="M1694 435 c-7 -16 3 -35 17 -35 6 0 6 7 0 19 -6 10 -7 21 -4 25 3 3
3 6 -1 6 -3 0 -9 -7 -12 -15z"/>
<path d="M1746 441 c-7 -11 3 -41 14 -41 4 0 5 11 2 25 -5 27 -8 30 -16 16z"/>
<path d="M1832 425 c0 -16 2 -22 5 -12 2 9 2 23 0 30 -3 6 -5 -1 -5 -18z"/>
<path d="M1860 425 c0 -14 5 -25 10 -25 6 0 10 11 10 25 0 14 -4 25 -10 25 -5
0 -10 -11 -10 -25z"/>
<path d="M1890 426 c0 -14 5 -26 10 -26 6 0 10 9 10 19 0 11 -4 23 -10 26 -6
4 -10 -5 -10 -19z"/>
<path d="M1923 434 c-3 -8 -1 -20 6 -27 8 -8 11 -4 11 16 0 30 -7 35 -17 11z"/>
<path d="M1950 425 c0 -15 4 -24 10 -20 6 3 10 12 10 20 0 8 -4 17 -10 20 -6
4 -10 -5 -10 -20z"/>
<path d="M2013 434 c-3 -8 -1 -20 6 -27 8 -8 11 -4 11 16 0 30 -7 35 -17 11z"/>
<path d="M2044 424 c-1 -13 2 -21 7 -18 11 6 12 31 2 37 -5 3 -9 -6 -9 -19z"/>
<path d="M2070 441 c0 -6 4 -12 8 -15 5 -3 9 1 9 9 0 8 -4 15 -9 15 -4 0 -8
-4 -8 -9z"/>
<path d="M2101 434 c0 -11 3 -14 6 -6 3 7 2 16 -1 19 -3 4 -6 -2 -5 -13z"/>
<path d="M2140 429 c7 -11 14 -19 16 -16 7 7 -7 37 -17 37 -6 0 -5 -9 1 -21z"/>
<path d="M2073 397 c0 -9 9 -12 25 -9 17 3 20 7 10 13 -19 13 -35 11 -35 -4z"/>
<path d="M185 340 c-3 -5 -1 -10 4 -10 6 0 11 5 11 10 0 6 -2 10 -4 10 -3 0
-8 -4 -11 -10z"/>
</g>
</svg>
